<svg width="499" height="351" viewBox="0 0 499 351" fill="none" xmlns="http://www.w3.org/2000/svg">
<g clip-path="url(#clip0)">
<path d="M407.734 220.152H86.2188C81.6484 220.148 77.9453 216.434 77.9414 211.852V13.0273C77.9453 9.67188 80.6563 6.94922 84.0078 6.94531H409.844C413.246 6.94922 416.008 9.71875 416.012 13.1328V211.852C416.008 216.434 412.301 220.148 407.734 220.152Z" fill="#F2F2F2"/>
<path d="M396.004 208.395H96.3633C91.9688 208.395 88.3984 205.039 88.3984 200.914V27.7812C88.3984 24.7188 91.043 22.2305 94.2969 22.2305H397.969C401.281 22.2305 403.973 24.7617 403.973 27.8711V200.914C403.973 205.039 400.398 208.395 396.004 208.395Z" fill="white"/>
<path d="M415.895 12.5547H77.8242V8.32422C77.832 3.73047 81.5469 0.00390625 86.1328 0H407.59C412.172 0.00390625 415.887 3.73047 415.895 8.32422V12.5547Z" fill="#CCCCCC"/>
<path d="M95.0703 6.28906C95.0703 7.48047 94.1094 8.44531 92.9258 8.44531C91.7383 8.44531 90.7734 7.48047 90.7734 6.28906C90.7734 5.09766 91.7383 4.13672 92.9258 4.13672C94.1094 4.13672 95.0703 5.09766 95.0703 6.28906Z" fill="white"/>
<path d="M103.23 6.28906C103.23 7.48047 102.266 8.44531 101.082 8.44531C99.8945 8.44531 98.9336 7.48047 98.9336 6.28906C98.9336 5.09766 99.8945 4.13672 101.082 4.13672C102.266 4.13672 103.23 5.09766 103.23 6.28906Z" fill="white"/>
<path d="M111.387 6.28906C111.387 7.48047 110.426 8.44531 109.238 8.44531C108.051 8.44531 107.09 7.48047 107.09 6.28906C107.09 5.09766 108.051 4.13672 109.238 4.13672C110.426 4.13672 111.387 5.09766 111.387 6.28906Z" fill="white"/>
<path d="M363.023 179.359H130.812C125.965 179.355 122.039 175.414 122.035 170.555V58.2695C122.039 54.6406 124.973 51.6914 128.598 51.6875H365.133C368.813 51.6914 371.801 54.6875 371.805 58.3789V170.555C371.801 175.414 367.871 179.355 363.023 179.359ZM128.598 52.6953C125.531 52.6992 123.039 55.1953 123.035 58.2695V170.555C123.043 174.859 126.52 178.348 130.812 178.352H363.023C367.316 178.348 370.797 174.859 370.801 170.555V58.3789C370.797 55.2422 368.262 52.6992 365.133 52.6953H128.598Z" fill="#CCCCCC"/>
<path d="M138.84 170.555H354.996C359.43 170.555 363.023 166.949 363.023 162.504V68.6406C363.023 64.1953 359.43 60.5898 354.996 60.5898H138.84C134.406 60.5898 130.812 64.1953 130.812 68.6406V162.504C130.812 166.949 134.406 170.555 138.84 170.555Z" fill="#F2F2F2"/>
<path d="M167.902 83.3711C167.902 85.8711 165.875 87.8984 163.383 87.8984C160.891 87.8984 158.867 85.8711 158.867 83.3711C158.867 80.8711 160.891 78.8438 163.383 78.8438C165.875 78.8438 167.902 80.8711 167.902 83.3711Z" fill="#CCCCCC"/>
<path d="M167.902 100.477C167.902 102.977 165.875 105.004 163.383 105.004C160.891 105.004 158.867 102.977 158.867 100.477C158.867 97.9766 160.891 95.9492 163.383 95.9492C165.875 95.9492 167.902 97.9766 167.902 100.477Z" fill="#CCCCCC"/>
<path d="M167.902 117.586C167.902 120.086 165.875 122.113 163.383 122.113C160.891 122.113 158.867 120.086 158.867 117.586C158.867 115.086 160.891 113.055 163.383 113.055C165.875 113.055 167.902 115.086 167.902 117.586Z" fill="#CCCCCC"/>
<path d="M167.902 134.691C167.902 137.191 165.875 139.219 163.383 139.219C160.891 139.219 158.867 137.191 158.867 134.691C158.867 132.191 160.891 130.164 163.383 130.164C165.875 130.164 167.902 132.191 167.902 134.691Z" fill="#CCCCCC"/>
<path d="M334.465 83.875H185.961C185.684 83.875 185.457 83.6484 185.457 83.3711C185.457 83.0898 185.684 82.8672 185.961 82.8672H334.465C334.746 82.8672 334.969 83.0898 334.969 83.3711C334.969 83.6484 334.746 83.875 334.465 83.875Z" fill="#CCCCCC"/>
<path d="M334.465 100.98H185.961C185.684 100.98 185.457 100.758 185.457 100.477C185.457 100.199 185.684 99.9727 185.961 99.9727H334.465C334.746 99.9727 334.969 100.199 334.969 100.477C334.969 100.758 334.746 100.98 334.465 100.98Z" fill="#CCCCCC"/>
<path d="M334.465 118.086H185.961C185.684 118.086 185.457 117.863 185.457 117.586C185.457 117.305 185.684 117.082 185.961 117.082H334.465C334.746 117.082 334.969 117.305 334.969 117.586C334.969 117.863 334.746 118.086 334.465 118.086Z" fill="#CCCCCC"/>
<path d="M334.465 135.195H185.961C185.684 135.195 185.457 134.973 185.457 134.691C185.457 134.414 185.684 134.188 185.961 134.188H334.465C334.746 134.188 334.969 134.414 334.969 134.691C334.969 134.973 334.746 135.195 334.465 135.195Z" fill="#CCCCCC"/>
<path d="M214.059 152.301H199.504C198.125 152.301 197 151.176 196.996 149.785V136.203C197 134.812 198.125 133.688 199.504 133.688H214.059C215.441 133.688 216.562 134.812 216.562 136.203V149.785C216.562 151.176 215.441 152.301 214.059 152.301Z" fill="#63C8DE"/>
<path d="M246.664 152.301H232.117C230.73 152.301 229.609 151.176 229.609 149.785V119.094C229.609 117.707 230.73 116.578 232.117 116.578H246.664C248.051 116.578 249.172 117.707 249.176 119.094V149.785C249.172 151.176 248.051 152.301 246.664 152.301Z" fill="#63C8DE"/>
<path d="M279.781 152.301H265.23C263.848 152.301 262.727 151.176 262.723 149.785V101.988C262.727 100.598 263.848 99.4727 265.23 99.4727H279.781C281.164 99.4727 282.289 100.598 282.289 101.988V149.785C282.289 151.176 281.164 152.301 279.781 152.301Z" fill="#63C8DE"/>
<path d="M313.895 152.301H299.348C297.961 152.301 296.84 151.176 296.84 149.785V85.3828C296.84 83.9961 297.961 82.8672 299.348 82.8672H313.895C315.281 82.8672 316.402 83.9961 316.406 85.3828V149.785C316.402 151.176 315.281 152.301 313.895 152.301Z" fill="#63C8DE"/>
<path d="M334.465 152.301H185.961C185.684 152.301 185.457 152.078 185.457 151.801C185.457 151.52 185.684 151.297 185.961 151.297H334.465C334.746 151.297 334.969 151.52 334.969 151.801C334.969 152.078 334.746 152.301 334.465 152.301Z" fill="#3F3D56"/>
<path d="M399.711 246.164C400.535 244.914 401.871 244.098 403.352 243.926C404.836 243.758 406.32 244.254 407.398 245.289L423.332 237.039L422.34 246.332L407.363 252.738C405.473 254.484 402.578 254.535 400.625 252.859C398.676 251.18 398.285 248.305 399.711 246.164Z" fill="#FFB8B8"/>
<path d="M413.422 249.633C413.059 249.344 412.793 248.953 412.656 248.516L411.387 244.41C411.109 243.5 411.426 242.512 412.184 241.934L425.098 232.156L439.086 206.137C441.547 202.953 446.117 202.375 449.289 204.848C452.461 207.316 453.035 211.898 450.574 215.082L442.617 231.922C440.203 237.031 436.02 241.094 430.844 243.34L415.711 249.926C415.125 250.18 414.453 250.172 413.871 249.906C413.711 249.832 413.559 249.738 413.422 249.633Z" fill="#3F3D56"/>
<path d="M463.246 182.914C463.246 189.742 457.73 195.273 450.926 195.273C444.117 195.273 438.602 189.742 438.602 182.914C438.602 176.094 444.117 170.559 450.926 170.559C457.73 170.559 463.246 176.094 463.246 182.914Z" fill="#FFB8B8"/>
<path d="M445.926 345.031H439.773L436.848 321.234H445.926V345.031Z" fill="#FFB8B8"/>
<path d="M435.379 343.27H447.246V350.758H427.914C427.914 346.621 431.258 343.27 435.379 343.27Z" fill="#2F2E41"/>
<path d="M465.992 345.035L459.844 345.031L456.918 321.234L465.996 321.238L465.992 345.035Z" fill="#FFB8B8"/>
<path d="M455.449 343.27H467.309V350.762H447.98C447.98 346.621 451.324 343.27 455.449 343.27Z" fill="#2F2E41"/>
<path d="M466.441 338.996H459.234C458.215 338.992 457.32 338.309 457.055 337.316L446.68 298.727C446.645 298.602 446.523 298.523 446.398 298.543C446.273 298.562 446.184 298.676 446.188 298.805L448.285 335.406C448.32 336.062 448.074 336.699 447.605 337.16C447.137 337.617 446.492 337.848 445.84 337.793L437.742 337.117C436.672 337.023 435.812 336.187 435.688 335.121L428.305 258.266L431.16 259.984L457.918 255.43L468.68 336.434C468.766 337.078 468.57 337.73 468.141 338.223C467.715 338.711 467.094 338.996 466.441 338.996Z" fill="#2F2E41"/>
<path d="M437.254 266.379C434.301 266.355 431.41 265.539 428.879 264.016C428.082 263.543 427.656 262.621 427.809 261.707C428.75 255.93 433.668 226.281 438.148 210.117C439.973 203.539 444 199.992 450.129 199.578C459.094 198.988 467.062 206.027 467.895 215.277C469.359 231.605 463.41 254.801 460.785 264.02C460.582 264.742 460.027 265.312 459.316 265.547C458.605 265.777 457.824 265.641 457.23 265.176L451.883 261.004C451.203 260.484 450.25 260.523 449.613 261.102C445.105 265.133 440.828 266.379 437.254 266.379Z" fill="#3F3D56"/>
<path d="M457.957 193.082C459.051 193.102 460.141 192.902 461.16 192.5C461.609 192.328 462.078 192.18 462.523 192.008C466.477 190.477 469.082 186.254 469.176 182.004C469.27 177.754 467.074 173.629 463.812 170.906C460.559 168.191 456.336 166.797 452.105 166.469C447.555 166.125 442.426 167.277 439.883 171.086C439.207 172.094 438.73 173.324 439.137 174.547C439.254 174.914 439.469 175.246 439.754 175.508C440.895 176.52 442.027 175.758 443.184 175.687C444.777 175.598 446.207 176.891 446.719 178.402C447.234 179.918 447.008 181.582 446.59 183.129C446.277 184.055 446.074 185.023 445.996 186C445.93 187 446.383 187.961 447.191 188.547C448.187 189.145 449.492 188.797 450.488 188.195C451.484 187.594 452.348 186.758 453.422 186.312C454.496 185.871 455.941 185.969 456.562 186.953C456.766 187.312 456.898 187.699 456.965 188.105C457.523 190.668 457.395 190.516 457.957 193.082Z" fill="#2F2E41"/>
<path d="M438.855 327.77L361.695 300.82C358.938 299.855 357.48 296.832 358.441 294.066L378.488 236.324C379.195 234.301 381.402 233.227 383.426 233.93L463.195 261.793C465.25 262.512 466.332 264.766 465.621 266.828L445.594 324.508C444.629 327.27 441.613 328.73 438.855 327.77Z" fill="#E6E6E6"/>
<path d="M368.281 297.5L435.754 321.066C438.426 322.004 441.352 320.582 442.281 317.902L458.473 271.273C459.406 268.594 457.992 265.66 455.316 264.727L387.848 241.16C385.172 240.223 382.242 241.645 381.312 244.328L365.121 290.953C364.191 293.637 365.605 296.57 368.281 297.5Z" fill="white"/>
<path d="M385.223 264.746L381.883 263.578C381.504 263.445 381.305 263.031 381.437 262.652L382.602 259.301C382.73 258.922 383.141 258.723 383.52 258.855L386.863 260.02C387.238 260.152 387.437 260.566 387.309 260.949L386.145 264.297C386.012 264.676 385.598 264.875 385.223 264.746Z" fill="#F9A826"/>
<path d="M382.207 273.426L378.867 272.262C378.488 272.129 378.289 271.715 378.422 271.332L379.582 267.984C379.719 267.605 380.129 267.406 380.504 267.535L383.848 268.703C384.227 268.836 384.426 269.25 384.293 269.629L383.129 272.98C382.996 273.359 382.586 273.559 382.207 273.426Z" fill="#3F3D56"/>
<path d="M379.191 282.109L375.852 280.941C375.473 280.813 375.277 280.398 375.406 280.016L376.57 276.668C376.699 276.289 377.113 276.09 377.492 276.219L380.832 277.387C381.207 277.52 381.406 277.934 381.277 278.313L380.113 281.664C379.984 282.043 379.566 282.242 379.191 282.109Z" fill="#CCCCCC"/>
<path d="M407.676 270.707L391.578 265.082C391.332 265 391.148 264.789 391.102 264.531C391.051 264.281 391.141 264.02 391.34 263.848C391.535 263.68 391.809 263.629 392.051 263.711L408.152 269.336C408.398 269.422 408.578 269.633 408.625 269.887C408.676 270.141 408.586 270.402 408.391 270.57C408.191 270.742 407.918 270.797 407.676 270.707Z" fill="#CCCCCC"/>
<path d="M404.664 279.391L388.562 273.766C388.184 273.633 387.984 273.219 388.117 272.844C388.246 272.465 388.66 272.266 389.035 272.395L405.137 278.02C405.383 278.102 405.562 278.316 405.613 278.57C405.66 278.82 405.57 279.086 405.375 279.254C405.176 279.422 404.906 279.473 404.664 279.391Z" fill="#CCCCCC"/>
<path d="M401.645 288.07L385.547 282.449C385.168 282.316 384.973 281.902 385.102 281.527C385.234 281.145 385.645 280.949 386.023 281.078L402.121 286.703C402.5 286.832 402.699 287.246 402.566 287.629C402.434 288.004 402.023 288.203 401.645 288.07Z" fill="#CCCCCC"/>
<path d="M444.492 292.777C444.609 292.492 444.719 292.207 444.82 291.914C447.574 283.98 443.395 275.309 435.484 272.543L430.191 287.781L444.492 292.777Z" fill="#63C8DE"/>
<path d="M428.652 288.707L433.945 273.473C426.145 270.742 417.602 274.781 414.73 282.543C411.859 290.312 415.703 298.957 423.391 301.996C431.074 305.027 439.766 301.348 442.953 293.703L428.652 288.707Z" fill="#3F3D56"/>
<path d="M447.598 266.848C447.477 265.355 448.023 263.887 449.086 262.836C450.148 261.785 451.621 261.258 453.105 261.398L460.57 245.051L465.504 252.977L457.664 267.289C457.25 269.832 455.004 271.664 452.438 271.551C449.871 271.441 447.789 269.418 447.598 266.848Z" fill="#FFB8B8"/>
<path d="M460.516 261.09C460.055 261.09 459.609 260.953 459.23 260.688L455.707 258.242C454.926 257.695 454.566 256.723 454.809 255.801L458.949 240.113L453.941 210.984C453.926 208.375 455.305 205.957 457.547 204.641C459.793 203.324 462.566 203.313 464.828 204.605C467.082 205.898 468.48 208.305 468.492 210.91L472.59 229.09C473.84 234.605 473.043 240.391 470.359 245.363L462.5 259.906C462.195 260.473 461.664 260.883 461.039 261.031C460.867 261.07 460.691 261.09 460.516 261.09Z" fill="#3F3D56"/>
<path d="M498.699 351.039H403.375C403.098 351.039 402.875 350.816 402.875 350.535C402.875 350.258 403.098 350.035 403.375 350.035H498.699C498.977 350.035 499.199 350.258 499.199 350.535C499.199 350.816 498.977 351.039 498.699 351.039Z" fill="#CCCCCC"/>
<path d="M246.109 344.781L252.262 344.777L255.188 320.988H246.109V344.781Z" fill="#A0616A"/>
<path d="M244.539 342.766H256.656C260.914 342.766 264.371 346.234 264.371 350.508V350.762H244.539V342.766Z" fill="#2F2E41"/>
<path d="M221.523 344.781L227.676 344.777L230.602 320.988H221.523V344.781Z" fill="#A0616A"/>
<path d="M219.957 342.766H232.07C236.336 342.766 239.793 346.234 239.793 350.508V350.762H219.957V342.766Z" fill="#2F2E41"/>
<path d="M259.66 167.699C259.66 174.523 254.145 180.059 247.336 180.059C240.531 180.059 235.012 174.523 235.012 167.699C235.012 160.875 240.531 155.34 247.336 155.34C254.145 155.34 259.66 160.875 259.66 167.699Z" fill="#A0616A"/>
<path d="M255.625 339.645H244.211C243.605 339.645 243.027 339.406 242.605 338.973C242.176 338.539 241.945 337.957 241.953 337.352L242.617 282.996C242.621 282.594 242.309 282.262 241.914 282.234C241.516 282.207 241.164 282.496 241.113 282.898L234.473 337.656C234.332 338.793 233.371 339.645 232.23 339.645H220.707C220.078 339.645 219.477 339.383 219.047 338.918C218.625 338.453 218.41 337.832 218.457 337.203L226.066 239.555L226.27 239.531L262.715 235.586L257.879 337.492C257.824 338.695 256.828 339.648 255.625 339.645Z" fill="#2F2E41"/>
<path d="M226.512 245.551C225.293 245.547 224.297 244.574 224.258 243.355C224.063 237.184 223.723 215.816 227.684 200.133C229.902 191.336 237.605 185.035 246.641 184.617C255.527 184.129 263.73 189.406 266.992 197.711C273.652 214.668 279.945 235.57 272.102 238.848C261.82 243.145 234.711 245.059 226.648 245.547C226.602 245.547 226.559 245.551 226.512 245.551Z" fill="#3F3D56"/>
<path d="M273.605 155.211C273.801 155.406 274.008 155.594 274.234 155.758L272.938 180.68L267.559 183.441L270.652 192.129L280.652 188.168C282.312 187.512 283.34 185.832 283.176 184.051L280.555 155.785C282.309 154.473 283.07 152.203 282.469 150.094C281.863 147.98 280.02 146.469 277.84 146.289C275.656 146.105 273.59 147.297 272.648 149.285C271.711 151.266 272.09 153.629 273.605 155.211Z" fill="#A0616A"/>
<path d="M273.039 181.605L276.824 192.395C277.043 193.016 276.98 193.699 276.652 194.273C276.328 194.844 275.766 195.242 275.125 195.367L263.965 197.535C260.695 198.668 257.133 196.934 255.996 193.664C254.859 190.387 256.578 186.809 259.836 185.66L269.859 180.355C270.437 180.047 271.121 180.012 271.734 180.25C272.344 180.492 272.82 180.984 273.039 181.605Z" fill="#3F3D56"/>
<path d="M220.23 155.211C220.035 155.406 219.828 155.594 219.605 155.758L220.898 180.68L226.277 183.441L223.184 192.129L213.187 188.168C211.527 187.512 210.5 185.832 210.664 184.051L213.285 155.785C211.527 154.473 210.766 152.203 211.371 150.094C211.973 147.98 213.816 146.469 216 146.289C218.18 146.105 220.25 147.297 221.187 149.285C222.129 151.266 221.746 153.629 220.23 155.211Z" fill="#A0616A"/>
<path d="M222.105 180.25C222.711 180.012 223.398 180.047 223.98 180.355L234 185.66C237.262 186.809 238.98 190.387 237.84 193.664C236.703 196.934 233.141 198.668 229.871 197.535L218.711 195.367C218.066 195.242 217.508 194.844 217.184 194.273C216.855 193.699 216.797 193.016 217.012 192.395L220.797 181.605C221.012 180.984 221.492 180.492 222.105 180.25Z" fill="#3F3D56"/>
<path d="M252.125 169.805C251.988 166.582 253.77 163.59 256.66 162.172C260.406 160.234 262.758 156.098 261.727 152.32C260.406 147.488 253.848 144.352 248.531 146.012C247.09 146.527 245.699 147.172 244.387 147.945L240.91 149.813C239.426 150.559 237.996 151.406 236.629 152.348C232.457 155.43 230.293 160.547 230.977 165.699C231.656 170.613 234.867 175.121 239.262 178.207C240.941 179.465 242.883 180.328 244.937 180.738C247.047 181.086 249.391 180.691 250.93 179.379C253.336 177.324 253.09 173.887 252.312 171.016C252.207 170.621 252.145 170.215 252.125 169.805Z" fill="#2F2E41"/>
<path d="M294.004 351.039H198.676C198.398 351.039 198.176 350.816 198.176 350.535C198.176 350.258 198.398 350.035 198.676 350.035H294.004C294.277 350.035 294.5 350.258 294.5 350.535C294.5 350.816 294.277 351.039 294.004 351.039Z" fill="#CCCCCC"/>
<path d="M138.426 259.25L59.7695 291.613C56.957 292.77 53.7461 291.422 52.5859 288.602L28.5078 229.742C27.668 227.672 28.6484 225.316 30.7109 224.465L112.023 191.008C114.121 190.148 116.52 191.152 117.375 193.254L141.43 252.047C142.582 254.871 141.234 258.09 138.426 259.25Z" fill="#E6E6E6"/>
<path d="M62.6211 284.473L131.398 256.176C134.125 255.055 135.43 251.926 134.312 249.191L114.871 201.664C113.746 198.926 110.633 197.617 107.906 198.742L39.125 227.039C36.3984 228.16 35.0938 231.289 36.2109 234.027L55.6563 281.555C56.7734 284.289 59.8945 285.594 62.6211 284.473Z" fill="white"/>
<path d="M113.477 215.039L114.488 214.621L114.555 214.793L113.547 215.207L113.477 215.039Z" fill="#E6E6E6"/>
<path d="M111.504 216.051L109.461 216.891L109.391 216.723L111.434 215.879L111.504 216.051ZM107.418 217.73L105.375 218.574L105.305 218.402L107.348 217.562L107.418 217.73ZM103.332 219.41L101.289 220.25L101.219 220.082L103.266 219.242L103.332 219.41ZM99.2461 221.094L97.2031 221.934L97.1367 221.766L99.1758 220.922L99.2461 221.094ZM95.1602 222.773L93.1172 223.613L93.0469 223.445L95.0898 222.605L95.1602 222.773ZM91.0742 224.453L89.0312 225.293L88.9609 225.125L91.0078 224.285L91.0742 224.453ZM86.9883 226.137L84.9453 226.977L84.8789 226.809L86.918 225.969L86.9883 226.137ZM82.9062 227.816L80.8594 228.656L80.793 228.488L82.832 227.645L82.9062 227.816ZM78.8164 229.496L76.7773 230.34L76.707 230.168L78.75 229.328L78.8164 229.496ZM74.7305 231.18L72.6875 232.02L72.6211 231.852L74.6641 231.012L74.7305 231.18ZM70.6484 232.859L68.6016 233.699L68.5352 233.531L70.5781 232.688L70.6484 232.859ZM66.5586 234.539L64.5195 235.383L64.4492 235.211L66.4922 234.371L66.5586 234.539ZM62.4766 236.223L60.4336 237.059L60.3633 236.891L62.4062 236.055L62.4766 236.223ZM58.3906 237.902L56.3477 238.742L56.2812 238.574L58.3203 237.73L58.3906 237.902ZM54.3047 239.582L52.2617 240.426L52.1914 240.258L54.2344 239.414L54.3047 239.582ZM50.2188 241.266L48.1758 242.102L48.1055 241.934L50.1523 241.098L50.2188 241.266Z" fill="#E6E6E6"/>
<path d="M45.0547 243.191L46.0625 242.777L46.1328 242.945L45.1211 243.359L45.0547 243.191Z" fill="#E6E6E6"/>
<path d="M86.707 244.418L87.7188 244.004L87.7852 244.172L86.7773 244.586L86.707 244.418Z" fill="#E6E6E6"/>
<path d="M84.7656 245.418L82.75 246.242L82.6797 246.074L84.6953 245.25L84.7656 245.418ZM80.7383 247.07L78.7266 247.902L78.6562 247.734L80.668 246.902L80.7383 247.07ZM76.7148 248.727L74.6992 249.555L74.6289 249.387L76.6445 248.559L76.7148 248.727ZM72.6875 250.387L70.6758 251.211L70.6055 251.043L72.6172 250.215L72.6875 250.387ZM68.6602 252.039L66.6484 252.867L66.582 252.695L68.5938 251.871L68.6602 252.039ZM64.6367 253.695L62.625 254.523L62.5586 254.355L64.5703 253.527L64.6367 253.695ZM60.6094 255.352L58.6016 256.18L58.5312 256.012L60.543 255.18L60.6094 255.352ZM56.5898 257.008L54.5781 257.836L54.5078 257.664L56.5195 256.84L56.5898 257.008Z" fill="#E6E6E6"/>
<path d="M51.4805 258.91L52.4922 258.496L52.5625 258.664L51.5508 259.082L51.4805 258.91Z" fill="#E6E6E6"/>
<path d="M70.0312 259.969L71.0391 259.551L71.1094 259.723L70.0977 260.137L70.0312 259.969Z" fill="#E6E6E6"/>
<path d="M68.0273 260.992L65.957 261.84L65.8867 261.672L67.9609 260.824L68.0273 260.992ZM63.8867 262.695L61.8164 263.547L61.75 263.379L63.8164 262.523L63.8867 262.695ZM59.7461 264.395L57.6758 265.25L57.6055 265.078L59.6758 264.227L59.7461 264.395Z" fill="#E6E6E6"/>
<path d="M54.5273 266.348L55.5352 265.934L55.6055 266.102L54.5938 266.52L54.5273 266.348Z" fill="#E6E6E6"/>
<path d="M75.2227 272.656L76.2305 272.246L76.3008 272.414L75.2891 272.828L75.2227 272.656Z" fill="#E6E6E6"/>
<path d="M73.2227 273.68L71.1484 274.535L71.0781 274.363L73.1523 273.512L73.2227 273.68ZM69.0781 275.387L67.0078 276.234L66.9414 276.066L69.0117 275.219L69.0781 275.387ZM64.9375 277.09L62.8672 277.941L62.7969 277.773L64.8672 276.918L64.9375 277.09Z" fill="#E6E6E6"/>
<path d="M59.7148 279.039L60.7305 278.621L60.7969 278.789L59.7852 279.207L59.7148 279.039Z" fill="#E6E6E6"/>
<path d="M65.5391 276.992L123.828 253.012C126.762 251.801 128.168 248.434 126.965 245.484L115.188 216.695L115.074 216.746L100.773 251.043L90.1641 246.598C89.7656 246.426 89.3164 246.453 88.9375 246.672C88.6641 246.84 88.4531 247.09 88.332 247.395L80.8359 265.367L73.0781 262.117C72.3789 261.82 71.5664 262.156 71.2695 262.859C71.2227 262.98 66.4414 274.75 65.5391 276.992Z" fill="#63C8DE"/>
<path d="M65.3594 277.262L65.1953 277.195L71.1875 262.809C71.5195 262.016 72.4258 261.648 73.2188 261.973L80.8164 265.164L88.2734 247.289C88.6016 246.5 89.5078 246.129 90.2969 246.453L100.754 250.84L115.129 216.363L115.297 216.434L100.852 251.082L90.2305 246.625C89.5312 246.332 88.7305 246.664 88.4414 247.359L80.9141 265.402L73.1484 262.145C72.4492 261.852 71.6484 262.184 71.3594 262.879L65.3594 277.262Z" fill="#3F3D56"/>
<path d="M72.3516 259.637C72.3516 260.344 71.7812 260.918 71.0742 260.918C70.3711 260.918 69.8008 260.344 69.8008 259.637C69.8008 258.93 70.3711 258.359 71.0742 258.359C71.7812 258.359 72.3516 258.93 72.3516 259.637Z" fill="#3F3D56"/>
<path d="M89.0234 244.09C89.0234 244.793 88.457 245.367 87.75 245.367C87.0469 245.367 86.4766 244.793 86.4766 244.09C86.4766 243.383 87.0469 242.809 87.75 242.809C88.457 242.809 89.0234 243.383 89.0234 244.09Z" fill="#3F3D56"/>
<path d="M114.996 214.66C114.996 215.371 114.422 215.941 113.719 215.941C113.016 215.941 112.445 215.371 112.445 214.66C112.445 213.957 113.016 213.383 113.719 213.383C114.422 213.383 114.996 213.957 114.996 214.66Z" fill="#3F3D56"/>
<path d="M42.3437 258.184C43.6836 257.516 44.6641 256.285 45.0156 254.824C45.3633 253.363 45.0508 251.82 44.1562 250.613L47.9414 213.48H39.7578L36.7461 249.738C34.7812 251.41 34.3789 254.301 35.8047 256.453C37.2344 258.609 40.043 259.352 42.3437 258.184Z" fill="#FFB8B8"/>
<path d="M61.4375 181.371C61.4375 187.781 56.2539 192.984 49.8594 192.984C43.4648 192.984 38.2812 187.781 38.2812 181.371C38.2812 174.957 43.4648 169.758 49.8594 169.758C56.2539 169.758 61.4375 174.957 61.4375 181.371Z" fill="#FFB8B8"/>
<path d="M52.0391 235.102C51.0898 235.102 50.2539 234.465 49.9961 233.543C49.0703 230.164 46.6602 224.449 42.8242 216.555C41.0742 212.949 40.9453 208.762 42.4688 205.051C43.9922 201.34 47.0195 198.457 50.793 197.125C54.3633 195.859 58.2969 196.102 61.6914 197.789C65.0859 199.477 67.6563 202.469 68.8164 206.09C71.7852 215.43 71.6445 225.434 71.4453 229.301C71.3945 230.254 70.7109 231.062 69.7773 231.27L52.4922 235.055C52.3438 235.086 52.1914 235.102 52.0391 235.102Z" fill="#3F3D56"/>
<path d="M68.7773 345.375H74.5547L77.3047 323.016L68.7773 323.02V345.375Z" fill="#FFB8B8"/>
<path d="M85.7031 350.762H67.5352V343.723H78.6836C82.5586 343.723 85.7031 346.875 85.7031 350.762Z" fill="#2F2E41"/>
<path d="M10.9766 337.863L16.043 340.66L29.1953 322.395L21.7227 318.273L10.9766 337.863Z" fill="#FFB8B8"/>
<path d="M23.2266 350.762L7.30469 341.984L10.6875 335.816L20.457 341.199C23.8555 343.07 25.0938 347.352 23.2266 350.762Z" fill="#2F2E41"/>
<path d="M68.5039 332.965C67.4375 332.965 66.5391 332.172 66.4023 331.113L59.1758 275.254C59.1094 274.746 58.7266 274.336 58.2266 274.242C57.7227 274.148 57.2227 274.383 56.9727 274.832L26.8477 329.645C26.3359 330.57 25.2227 330.98 24.2344 330.605L17.668 328.098C17.1328 327.895 16.707 327.48 16.4805 326.961C16.25 326.434 16.2422 325.84 16.4609 325.309L37.3281 273.895C37.3789 273.766 37.4141 273.629 37.4336 273.488C40.2578 251.551 47.4531 240.391 49.5898 237.492C49.9063 237.063 49.9922 236.5 49.8203 235.996L49.5313 235.109C49.293 234.395 49.4453 233.609 49.9375 233.043C57.6367 224.246 71.0547 229.047 71.1914 229.098L71.2578 229.121L71.3008 229.18C86.3477 249.875 80.7852 317.094 79.5195 330.359C79.4219 331.391 78.5977 332.199 77.5703 332.273L68.6719 332.961C68.6133 332.965 68.5586 332.965 68.5039 332.965Z" fill="#2F2E41"/>
<path d="M94.875 194.863C94.8203 195.113 94.7812 195.371 94.7656 195.637L74.5117 207.355L69.5898 204.512L64.3438 211.398L72.5664 217.281C73.9297 218.258 75.7773 218.211 77.0938 217.168L97.9766 200.648C99.9063 201.363 102.074 200.809 103.43 199.254C104.777 197.695 105.031 195.465 104.051 193.645C103.078 191.828 101.086 190.801 99.0469 191.074C97.0039 191.344 95.3477 192.848 94.875 194.863Z" fill="#FFB8B8"/>
<path d="M73.832 207.91L67.2891 216.414C66.9141 216.906 66.3398 217.207 65.7227 217.242C65.1055 217.277 64.5078 217.035 64.0781 216.594L56.6719 208.875C54.1094 206.871 53.6523 203.168 55.6445 200.594C57.6328 198.023 61.3242 197.551 63.8945 199.539L73.1914 204.754C73.7266 205.055 74.1094 205.578 74.2344 206.184C74.3555 206.789 74.2109 207.418 73.832 207.91Z" fill="#3F3D56"/>
<path d="M48.4648 222.687L37.9219 220.777C37.3125 220.668 36.7852 220.297 36.4688 219.77C36.1563 219.234 36.0898 218.594 36.2852 218.004L39.707 207.855C40.2969 204.652 43.3672 202.539 46.5625 203.125C49.7539 203.715 51.875 206.785 51.2969 209.988L50.9648 220.664C50.9414 221.281 50.6563 221.859 50.1758 222.25C49.6953 222.637 49.0703 222.797 48.4648 222.687Z" fill="#3F3D56"/>
<path d="M51.6914 178.699C54.668 180.742 58.5742 182.84 61.6172 180.668C63.5703 179.172 64.3086 176.57 63.4336 174.273C61.9766 170.098 57.9766 168.262 54.1524 166.852C49.1836 165.02 43.7656 163.563 38.6367 164.875C33.5039 166.188 28.9688 171.172 29.8985 176.398C30.6406 180.605 34.5977 184.102 34.0313 188.336C33.4688 192.598 28.6914 194.844 24.4727 195.602C20.2539 196.363 15.5352 196.605 12.5 199.645C8.63673 203.527 9.60158 210.453 13.2383 214.543C16.8789 218.641 22.3711 220.496 27.6914 221.754C34.7422 223.43 42.3672 224.305 49.0625 221.527C55.7617 218.758 60.9727 211.293 59.0313 204.293C58.211 201.336 56.2813 198.836 54.4141 196.402C52.5508 193.969 50.6602 191.426 49.9492 188.441C49.3594 185.953 49.7969 183.066 51.4414 181.203C52.0547 180.531 52.168 179.539 51.7188 178.75L51.6914 178.699Z" fill="#2F2E41"/>
<path d="M95.8242 351.039H0.503906C0.222656 351.039 0 350.816 0 350.535C0 350.258 0.222656 350.035 0.503906 350.035H95.8242C96.1016 350.035 96.3281 350.258 96.3281 350.535C96.3281 350.816 96.1016 351.039 95.8242 351.039Z" fill="#CCCCCC"/>
</g>
<defs>
<clipPath id="clip0">
<rect width="499" height="351" fill="white"/>
</clipPath>
</defs>
</svg>
